<svg id="visual" viewBox="0 0 1200 800" width="1200" height="800" xmlns="http://www.w3.org/2000/svg" xmlns:xlink="http://www.w3.org/1999/xlink" version="1.1"><path d="M0 185L50 195.7C100 206.3 200 227.7 300 221C400 214.3 500 179.7 600 171.7C700 163.7 800 182.3 900 181C1000 179.7 1100 158.3 1150 147.7L1200 137L1200 0L1150 0C1100 0 1000 0 900 0C800 0 700 0 600 0C500 0 400 0 300 0C200 0 100 0 50 0L0 0Z" fill="#e2dbd6"></path><path d="M0 593L50 574.3C100 555.7 200 518.3 300 506.3C400 494.3 500 507.7 600 514.3C700 521 800 521 900 525C1000 529 1100 537 1150 541L1200 545L1200 135L1150 145.7C1100 156.3 1000 177.7 900 179C800 180.3 700 161.7 600 169.7C500 177.7 400 212.3 300 219C200 225.7 100 204.3 50 193.7L0 183Z" fill="#b2a89d"></path><path d="M0 801L50 801C100 801 200 801 300 801C400 801 500 801 600 801C700 801 800 801 900 801C1000 801 1100 801 1150 801L1200 801L1200 543L1150 539C1100 535 1000 527 900 523C800 519 700 519 600 512.3C500 505.7 400 492.3 300 504.3C200 516.3 100 553.7 50 572.3L0 591Z" fill="#e2dbd6"></path></svg>