<svg width="296" height="90" viewBox="0 0 296 90" fill="none" xmlns="http://www.w3.org/2000/svg">
<path d="M25.9 27.3V63H30.65V46.65H49.45V63H54.2V27.3H49.45V42.65H30.65V27.3H25.9ZM112.316 27.3V63H117.066V50.5L123.016 44.95L135.916 63H141.916L126.266 41.7L141.316 27.3H135.166L117.066 45.1V27.3H112.316ZM181.666 50.1V27.3H176.916V50.1C176.916 53.3 176.116 55.7333 174.516 57.4C172.949 59.0333 170.649 59.85 167.616 59.85C164.416 59.85 161.966 59.0333 160.266 57.4C158.566 55.7333 157.716 53.3 157.716 50.1V27.3H152.966V50.1C152.966 54.8667 154.249 58.35 156.816 60.55C159.416 62.7167 163.016 63.8 167.616 63.8C172.116 63.8 175.582 62.6667 178.016 60.4C180.449 58.1 181.666 54.6667 181.666 50.1ZM196.7 27.3V63H201.2V34.35H201.3L219.95 63H225.15V27.3H220.65V56.25H220.55L201.75 27.3H196.7ZM246.484 48.25L252.534 31.6H252.634L258.584 48.25H246.484ZM250.034 27.3L236.134 63H240.984L244.984 52.25H260.084L263.984 63H269.234L255.284 27.3H250.034Z" fill="black"/>
<path d="M80 25L101.651 62.5H58.3494L80 25Z" fill="#E45231"/>
</svg>
